<?xml version="1.0" encoding="UTF-8"?>
<svg xmlns="http://www.w3.org/2000/svg" xmlns:xlink="http://www.w3.org/1999/xlink" width="1600px" height="815px" viewBox="0 0 1600 815" version="1.1">
<defs>
<filter id="alpha" filterUnits="objectBoundingBox" x="0%" y="0%" width="100%" height="100%">
  <feColorMatrix type="matrix" in="SourceGraphic" values="0 0 0 0 1 0 0 0 0 1 0 0 0 0 1 0 0 0 1 0"/>
</filter>
<mask id="mask0">
  <g filter="url(#alpha)">
<rect x="0" y="0" width="1600" height="815" style="fill:rgb(0%,0%,0%);fill-opacity:0.513725;stroke:none;"/>
  </g>
</mask>
<linearGradient id="linear0" gradientUnits="userSpaceOnUse" x1="421.57" y1="601.16" x2="418.88" y2="94.728" gradientTransform="matrix(2.146821,0,0,1.575793,3.38339,-138.660305)">
<stop offset="0" style="stop-color:rgb(14.117647%,37.647059%,88.235294%);stop-opacity:1;"/>
<stop offset="1" style="stop-color:rgb(14.117647%,37.647059%,88.235294%);stop-opacity:0;"/>
</linearGradient>
<clipPath id="clip1">
  <rect x="0" y="0" width="1600" height="815"/>
</clipPath>
<g id="surface5" clip-path="url(#clip1)">
<path style=" stroke:none;fill-rule:nonzero;fill:url(#linear0);" d="M 0.492188 0 L 1599.507812 0 L 1599.507812 815 L 0.492188 815 Z M 0.492188 0 "/>
</g>
<mask id="mask1">
  <g filter="url(#alpha)">
<rect x="0" y="0" width="1600" height="815" style="fill:rgb(0%,0%,0%);fill-opacity:0.87451;stroke:none;"/>
  </g>
</mask>
<clipPath id="clip2">
  <rect x="0" y="0" width="1600" height="815"/>
</clipPath>
<g id="surface8" clip-path="url(#clip2)">
<path style=" stroke:none;fill-rule:nonzero;fill:rgb(12.54902%,53.333333%,66.666667%);fill-opacity:1;" d="M 941.480469 292.238281 C 884.980469 292.238281 838.519531 323.757812 832.96875 364.15625 C 821.792969 360.597656 809.472656 358.628906 796.511719 358.628906 C 745.828125 358.628906 704.75 388.777344 704.75 425.980469 C 704.75 463.1875 745.824219 493.367188 796.511719 493.367188 C 801.714844 493.367188 806.8125 493.007812 811.78125 492.398438 C 820.808594 513.335938 847.464844 528.492188 878.976562 528.492188 C 905.984375 528.492188 929.4375 517.347656 941.273438 500.976562 C 951.425781 507.195312 964.464844 510.914062 978.71875 510.914062 C 1005.117188 510.914062 1027.46875 498.097656 1034.761719 480.46875 C 1040.324219 481.21875 1046.023438 481.648438 1051.882812 481.648438 C 1104.039062 481.648438 1146.316406 450.613281 1146.316406 412.332031 C 1146.316406 374.046875 1104.035156 343.015625 1051.882812 343.015625 C 1048.929688 343.015625 1046.039062 343.09375 1043.15625 343.289062 C 1027.324219 313.417969 987.773438 292.246094 941.480469 292.246094 Z M 941.480469 292.238281 "/>
</g>
<mask id="mask2">
  <g filter="url(#alpha)">
<rect x="0" y="0" width="1600" height="815" style="fill:rgb(0%,0%,0%);fill-opacity:0.917647;stroke:none;"/>
  </g>
</mask>
<clipPath id="clip3">
  <rect x="0" y="0" width="1600" height="815"/>
</clipPath>
<g id="surface11" clip-path="url(#clip3)">
<path style=" stroke:none;fill-rule:nonzero;fill:rgb(12.54902%,61.960784%,66.666667%);fill-opacity:1;" d="M 355.632812 362.929688 C 299.132812 362.929688 252.675781 394.445312 247.125 434.84375 C 235.945312 431.289062 223.625 429.316406 210.667969 429.316406 C 159.980469 429.316406 118.90625 459.464844 118.90625 496.671875 C 118.90625 533.875 159.980469 564.054688 210.667969 564.054688 C 215.871094 564.054688 220.964844 563.699219 225.933594 563.089844 C 234.964844 584.023438 261.621094 599.183594 293.128906 599.183594 C 320.140625 599.183594 343.589844 588.039062 355.425781 571.667969 C 365.578125 577.886719 378.617188 581.605469 392.871094 581.605469 C 419.273438 581.605469 441.625 568.789062 448.917969 551.160156 C 454.480469 551.910156 460.179688 552.339844 466.035156 552.339844 C 518.191406 552.339844 560.46875 521.304688 560.46875 483.023438 C 560.46875 444.738281 518.191406 413.707031 466.035156 413.707031 C 463.085938 413.707031 460.191406 413.785156 457.3125 413.976562 C 441.476562 384.109375 401.929688 362.933594 355.632812 362.933594 Z M 355.632812 362.929688 "/>
</g>
<mask id="mask3">
  <g filter="url(#alpha)">
<rect x="0" y="0" width="1600" height="815" style="fill:rgb(0%,0%,0%);fill-opacity:0.678431;stroke:none;"/>
  </g>
</mask>
<clipPath id="clip4">
  <rect x="0" y="0" width="1600" height="815"/>
</clipPath>
<g id="surface14" clip-path="url(#clip4)">
<path style=" stroke:none;fill-rule:nonzero;fill:rgb(12.54902%,40%,66.666667%);fill-opacity:1;" d="M 1262.945312 318.289062 C 1206.445312 318.289062 1159.984375 349.804688 1154.4375 390.203125 C 1143.257812 386.644531 1130.9375 384.675781 1117.976562 384.675781 C 1067.292969 384.675781 1026.214844 414.824219 1026.214844 452.03125 C 1026.214844 489.234375 1067.289062 519.414062 1117.976562 519.414062 C 1123.179688 519.414062 1128.277344 519.058594 1133.246094 518.445312 C 1142.273438 539.382812 1168.929688 554.539062 1200.441406 554.539062 C 1227.449219 554.539062 1250.902344 543.398438 1262.738281 527.027344 C 1272.890625 533.242188 1285.929688 536.960938 1300.183594 536.960938 C 1326.582031 536.960938 1348.933594 524.144531 1356.226562 506.519531 C 1361.789062 507.265625 1367.488281 507.695312 1373.347656 507.695312 C 1425.503906 507.695312 1467.78125 476.664062 1467.78125 438.378906 C 1467.78125 400.097656 1425.5 369.0625 1373.347656 369.0625 C 1370.394531 369.0625 1367.503906 369.140625 1364.621094 369.335938 C 1348.789062 339.46875 1309.238281 318.292969 1262.945312 318.292969 Z M 1262.945312 318.289062 "/>
</g>
<mask id="mask4">
  <g filter="url(#alpha)">
<rect x="0" y="0" width="1600" height="815" style="fill:rgb(0%,0%,0%);fill-opacity:0.513725;stroke:none;"/>
  </g>
</mask>
<clipPath id="clip5">
  <rect x="0" y="0" width="1600" height="815"/>
</clipPath>
<g id="surface17" clip-path="url(#clip5)">
<path style=" stroke:none;fill-rule:nonzero;fill:rgb(12.54902%,61.960784%,66.666667%);fill-opacity:1;" d="M 668.359375 478.058594 C 638.832031 478.058594 614.550781 494.53125 611.652344 515.644531 C 605.808594 513.785156 599.371094 512.753906 592.597656 512.753906 C 566.105469 512.753906 544.640625 528.511719 544.640625 547.957031 C 544.640625 567.402344 566.105469 583.171875 592.597656 583.171875 C 595.316406 583.171875 597.980469 582.988281 600.574219 582.667969 C 605.292969 593.609375 619.226562 601.53125 635.695312 601.53125 C 649.8125 601.53125 662.070312 595.707031 668.253906 587.152344 C 673.558594 590.402344 680.375 592.34375 687.824219 592.34375 C 701.621094 592.34375 713.300781 585.648438 717.113281 576.433594 C 720.023438 576.824219 723 577.046875 726.0625 577.046875 C 753.320312 577.046875 775.417969 560.828125 775.417969 540.820312 C 775.417969 520.8125 753.320312 504.59375 726.0625 504.59375 C 724.519531 504.59375 723.007812 504.632812 721.503906 504.734375 C 713.226562 489.125 692.558594 478.058594 668.363281 478.058594 Z M 668.359375 478.058594 "/>
</g>
<mask id="mask5">
  <g filter="url(#alpha)">
<rect x="0" y="0" width="1600" height="815" style="fill:rgb(0%,0%,0%);fill-opacity:0.439216;stroke:none;"/>
  </g>
</mask>
<clipPath id="clip6">
  <rect x="0" y="0" width="1600" height="815"/>
</clipPath>
<g id="surface20" clip-path="url(#clip6)">
<path style=" stroke:none;fill-rule:nonzero;fill:rgb(12.54902%,61.960784%,66.666667%);fill-opacity:1;" d="M 1257.320312 177.316406 C 1227.789062 177.316406 1203.507812 193.789062 1200.609375 214.902344 C 1194.765625 213.042969 1188.328125 212.015625 1181.554688 212.015625 C 1155.0625 212.015625 1133.597656 227.769531 1133.597656 247.214844 C 1133.597656 266.660156 1155.0625 282.433594 1181.554688 282.433594 C 1184.273438 282.433594 1186.9375 282.246094 1189.535156 281.929688 C 1194.253906 292.871094 1208.183594 300.792969 1224.652344 300.792969 C 1238.769531 300.792969 1251.027344 294.96875 1257.210938 286.410156 C 1262.519531 289.660156 1269.332031 291.605469 1276.78125 291.605469 C 1290.578125 291.605469 1302.261719 284.90625 1306.074219 275.691406 C 1308.980469 276.085938 1311.960938 276.308594 1315.019531 276.308594 C 1342.277344 276.308594 1364.375 260.089844 1364.375 240.082031 C 1364.375 220.074219 1342.277344 203.855469 1315.019531 203.855469 C 1313.476562 203.855469 1311.96875 203.894531 1310.460938 203.996094 C 1302.1875 188.386719 1281.515625 177.316406 1257.320312 177.316406 Z M 1257.320312 177.316406 "/>
</g>
<mask id="mask6">
  <g filter="url(#alpha)">
<rect x="0" y="0" width="1600" height="815" style="fill:rgb(0%,0%,0%);fill-opacity:0.490196;stroke:none;"/>
  </g>
</mask>
<clipPath id="clip7">
  <rect x="0" y="0" width="1600" height="815"/>
</clipPath>
<g id="surface23" clip-path="url(#clip7)">
<path style=" stroke:none;fill-rule:nonzero;fill:rgb(14.117647%,37.647059%,88.235294%);fill-opacity:1;" d="M 313.0625 184.363281 C 283.53125 184.363281 259.25 200.832031 256.351562 221.945312 C 250.511719 220.089844 244.070312 219.058594 237.296875 219.058594 C 210.804688 219.058594 189.339844 234.816406 189.339844 254.261719 C 189.339844 273.707031 210.804688 289.476562 237.296875 289.476562 C 240.015625 289.476562 242.679688 289.292969 245.277344 288.972656 C 249.996094 299.914062 263.925781 307.835938 280.394531 307.835938 C 294.511719 307.835938 306.769531 302.011719 312.953125 293.457031 C 318.261719 296.707031 325.074219 298.648438 332.523438 298.648438 C 346.324219 298.648438 358.003906 291.949219 361.816406 282.738281 C 364.722656 283.128906 367.703125 283.351562 370.761719 283.351562 C 398.019531 283.351562 420.117188 267.132812 420.117188 247.125 C 420.117188 227.117188 398.019531 210.898438 370.761719 210.898438 C 369.222656 210.898438 367.710938 210.9375 366.203125 211.039062 C 357.929688 195.429688 337.257812 184.363281 313.0625 184.363281 Z M 313.0625 184.363281 "/>
</g>
</defs>
<g id="surface1">
<use xlink:href="#surface5" mask="url(#mask0)"/>
<path style=" stroke:none;fill-rule:nonzero;fill:rgb(12.54902%,40%,66.666667%);fill-opacity:1;" d="M 625.402344 232.800781 C 568.902344 232.800781 522.445312 264.316406 516.894531 304.714844 C 505.714844 301.160156 493.394531 299.1875 480.4375 299.1875 C 429.75 299.1875 388.675781 329.335938 388.675781 366.542969 C 388.675781 403.746094 429.75 433.925781 480.4375 433.925781 C 485.640625 433.925781 490.734375 433.570312 495.703125 432.960938 C 504.734375 453.894531 531.390625 469.054688 562.898438 469.054688 C 589.910156 469.054688 613.359375 457.910156 625.195312 441.539062 C 635.347656 447.757812 648.386719 451.476562 662.640625 451.476562 C 689.042969 451.476562 711.394531 438.660156 718.6875 421.03125 C 724.25 421.78125 729.949219 422.210938 735.804688 422.210938 C 787.960938 422.210938 830.238281 391.175781 830.238281 352.894531 C 830.238281 314.609375 787.960938 283.578125 735.804688 283.578125 C 732.855469 283.578125 729.960938 283.65625 727.082031 283.847656 C 711.246094 253.980469 671.699219 232.804688 625.402344 232.804688 Z M 625.402344 232.800781 "/>
<use xlink:href="#surface8" mask="url(#mask1)"/>
<use xlink:href="#surface11" mask="url(#mask2)"/>
<use xlink:href="#surface14" mask="url(#mask3)"/>
<use xlink:href="#surface17" mask="url(#mask4)"/>
<use xlink:href="#surface20" mask="url(#mask5)"/>
<use xlink:href="#surface23" mask="url(#mask6)"/>
</g>
</svg>
